<?xml version="1.0" encoding="UTF-8" standalone="no"?>
<!DOCTYPE svg PUBLIC "-//W3C//DTD SVG 1.1//EN"
 "http://www.w3.org/Graphics/SVG/1.1/DTD/svg11.dtd">
<!-- Generated by graphviz version 2.50.0 (20211204.2007)
 -->
<!-- Title: dependency&#45;cruiser output Pages: 1 -->
<svg width="458pt" height="196pt"
 viewBox="0.00 0.00 458.00 196.00" xmlns="http://www.w3.org/2000/svg" xmlns:xlink="http://www.w3.org/1999/xlink">
<g id="graph0" class="graph" transform="scale(1 1) rotate(0) translate(4 192)">
<title>dependency&#45;cruiser output</title>
<polygon fill="white" stroke="transparent" points="-4,4 -4,-192 454,-192 454,4 -4,4"/>
<g id="clust1" class="cluster">
<title>cluster_src</title>
<path fill="#ffffff" stroke="black" stroke-width="2" d="M20,-8C20,-8 430,-8 430,-8 436,-8 442,-14 442,-20 442,-20 442,-168 442,-168 442,-174 436,-180 430,-180 430,-180 20,-180 20,-180 14,-180 8,-174 8,-168 8,-168 8,-20 8,-20 8,-14 14,-8 20,-8"/>
<text text-anchor="middle" x="225" y="-168.8" font-family="Helvetica,sans-Serif" font-weight="bold" font-size="9.00">src</text>
</g>
<!-- src/astUtils.ts -->
<g id="node1" class="node">
<title>src/astUtils.ts</title>
<g id="a_node1"><a xlink:href="src/astUtils.ts" xlink:title="astUtils.ts">
<path fill="#ddfeff" stroke="black" d="M361,-61C361,-61 317,-61 317,-61 314,-61 311,-58 311,-55 311,-55 311,-49 311,-49 311,-46 314,-43 317,-43 317,-43 361,-43 361,-43 364,-43 367,-46 367,-49 367,-49 367,-55 367,-55 367,-58 364,-61 361,-61"/>
<text text-anchor="start" x="319" y="-49.8" font-family="Helvetica,sans-Serif" font-size="9.00">astUtils.ts</text>
</a>
</g>
</g>
<!-- src/wasm.ts -->
<g id="node2" class="node">
<title>src/wasm.ts</title>
<g id="a_node2"><a xlink:href="src/wasm.ts" xlink:title="wasm.ts">
<path fill="#ddfeff" stroke="black" d="M428,-61C428,-61 386,-61 386,-61 383,-61 380,-58 380,-55 380,-55 380,-49 380,-49 380,-46 383,-43 386,-43 386,-43 428,-43 428,-43 431,-43 434,-46 434,-49 434,-49 434,-55 434,-55 434,-58 431,-61 428,-61"/>
<text text-anchor="start" x="390" y="-49.8" font-family="Helvetica,sans-Serif" font-size="9.00">wasm.ts</text>
</a>
</g>
</g>
<!-- src/astUtils.ts&#45;&gt;src/wasm.ts -->
<g id="edge1" class="edge">
<title>src/astUtils.ts&#45;&gt;src/wasm.ts</title>
<path fill="none" stroke="#000000" stroke-width="2" stroke-opacity="0.200000" d="M367.23,-52C369.29,-52 371.38,-52 373.46,-52"/>
<polygon fill="#000000" fill-opacity="0.200000" stroke="#000000" stroke-width="2" stroke-opacity="0.200000" points="373.69,-54.1 379.69,-52 373.69,-49.9 373.69,-54.1"/>
</g>
<!-- src/cli.ts -->
<g id="node3" class="node">
<title>src/cli.ts</title>
<g id="a_node3"><a xlink:href="src/cli.ts" xlink:title="cli.ts">
<path fill="#ccffcc" stroke="black" d="M88,-154C88,-154 46,-154 46,-154 43,-154 40,-151 40,-148 40,-148 40,-142 40,-142 40,-139 43,-136 46,-136 46,-136 88,-136 88,-136 91,-136 94,-139 94,-142 94,-142 94,-148 94,-148 94,-151 91,-154 88,-154"/>
<text text-anchor="start" x="57.5" y="-142.8" font-family="Helvetica,sans-Serif" font-size="9.00">cli.ts</text>
</a>
</g>
</g>
<!-- src/dev.ts -->
<g id="node4" class="node">
<title>src/dev.ts</title>
<g id="a_node4"><a xlink:href="src/dev.ts" xlink:title="dev.ts">
<path fill="#ddfeff" stroke="black" d="M88,-124C88,-124 46,-124 46,-124 43,-124 40,-121 40,-118 40,-118 40,-112 40,-112 40,-109 43,-106 46,-106 46,-106 88,-106 88,-106 91,-106 94,-109 94,-112 94,-112 94,-118 94,-118 94,-121 91,-124 88,-124"/>
<text text-anchor="start" x="54.5" y="-112.8" font-family="Helvetica,sans-Serif" font-size="9.00">dev.ts</text>
</a>
</g>
</g>
<!-- src/dev.ts&#45;&gt;src/wasm.ts -->
<g id="edge4" class="edge">
<title>src/dev.ts&#45;&gt;src/wasm.ts</title>
<path fill="none" stroke="#000000" stroke-width="2" stroke-opacity="0.200000" d="M94.02,-121.13C101.92,-123.43 110.49,-126.38 118,-130 124.33,-133.05 124.38,-136.65 131,-139 201.03,-163.8 225.85,-163.69 298,-146 331.59,-137.76 341.22,-133.06 367,-110 380.8,-97.65 392.01,-79.41 398.81,-66.69"/>
<polygon fill="#000000" fill-opacity="0.200000" stroke="#000000" stroke-width="2" stroke-opacity="0.200000" points="400.72,-67.57 401.62,-61.28 396.99,-65.64 400.72,-67.57"/>
</g>
<!-- src/search.ts -->
<g id="node5" class="node">
<title>src/search.ts</title>
<g id="a_node5"><a xlink:href="src/search.ts" xlink:title="search.ts">
<path fill="#ddfeff" stroke="black" d="M192,-78C192,-78 150,-78 150,-78 147,-78 144,-75 144,-72 144,-72 144,-66 144,-66 144,-63 147,-60 150,-60 150,-60 192,-60 192,-60 195,-60 198,-63 198,-66 198,-66 198,-72 198,-72 198,-75 195,-78 192,-78"/>
<text text-anchor="start" x="152.5" y="-66.8" font-family="Helvetica,sans-Serif" font-size="9.00">search.ts</text>
</a>
</g>
</g>
<!-- src/dev.ts&#45;&gt;src/search.ts -->
<g id="edge2" class="edge">
<title>src/dev.ts&#45;&gt;src/search.ts</title>
<path fill="none" stroke="#000000" stroke-width="2" stroke-opacity="0.200000" d="M94.02,-108.87C101.92,-106.57 110.49,-103.62 118,-100 124.33,-96.95 125.04,-94.73 131,-91 136.34,-87.66 142.2,-84.23 147.72,-81.1"/>
<polygon fill="#000000" fill-opacity="0.200000" stroke="#000000" stroke-width="2" stroke-opacity="0.200000" points="148.89,-82.85 153.1,-78.09 146.84,-79.19 148.89,-82.85"/>
</g>
<!-- src/utils.ts -->
<g id="node6" class="node">
<title>src/utils.ts</title>
<g id="a_node6"><a xlink:href="src/utils.ts" xlink:title="utils.ts">
<path fill="#ddfeff" stroke="black" d="M360,-104C360,-104 318,-104 318,-104 315,-104 312,-101 312,-98 312,-98 312,-92 312,-92 312,-89 315,-86 318,-86 318,-86 360,-86 360,-86 363,-86 366,-89 366,-92 366,-92 366,-98 366,-98 366,-101 363,-104 360,-104"/>
<text text-anchor="start" x="326" y="-92.8" font-family="Helvetica,sans-Serif" font-size="9.00">utils.ts</text>
</a>
</g>
</g>
<!-- src/dev.ts&#45;&gt;src/utils.ts -->
<g id="edge3" class="edge">
<title>src/dev.ts&#45;&gt;src/utils.ts</title>
<path fill="none" stroke="#000000" stroke-width="2" stroke-opacity="0.200000" d="M94.19,-112.06C125.15,-108.69 178.27,-103.2 224,-100 251.46,-98.08 282.69,-96.77 305.51,-95.98"/>
<polygon fill="#000000" fill-opacity="0.200000" stroke="#000000" stroke-width="2" stroke-opacity="0.200000" points="305.79,-98.07 311.72,-95.76 305.65,-93.87 305.79,-98.07"/>
</g>
<!-- src/search.ts&#45;&gt;src/astUtils.ts -->
<g id="edge10" class="edge">
<title>src/search.ts&#45;&gt;src/astUtils.ts</title>
<path fill="none" stroke="#000000" stroke-width="2" stroke-opacity="0.200000" d="M192.35,-59.89C198.39,-57.11 205,-54 211,-51 216.87,-48.07 217.64,-45.6 224,-44 250.67,-37.28 281.88,-40.18 304.89,-44.26"/>
<polygon fill="#000000" fill-opacity="0.200000" stroke="#000000" stroke-width="2" stroke-opacity="0.200000" points="304.58,-46.33 310.86,-45.37 305.35,-42.2 304.58,-46.33"/>
</g>
<!-- src/search.ts&#45;&gt;src/utils.ts -->
<g id="edge12" class="edge">
<title>src/search.ts&#45;&gt;src/utils.ts</title>
<path fill="none" stroke="#000000" stroke-width="2" stroke-opacity="0.200000" d="M198.3,-73.12C227.44,-77.68 274.44,-85.05 305.77,-89.95"/>
<polygon fill="#000000" fill-opacity="0.200000" stroke="#000000" stroke-width="2" stroke-opacity="0.200000" points="305.57,-92.05 311.82,-90.9 306.22,-87.9 305.57,-92.05"/>
</g>
<!-- src/parseQuery.ts -->
<g id="node10" class="node">
<title>src/parseQuery.ts</title>
<g id="a_node10"><a xlink:href="src/parseQuery.ts" xlink:title="parseQuery.ts">
<path fill="#ddfeff" stroke="black" d="M292,-68C292,-68 230,-68 230,-68 227,-68 224,-65 224,-62 224,-62 224,-56 224,-56 224,-53 227,-50 230,-50 230,-50 292,-50 292,-50 295,-50 298,-53 298,-56 298,-56 298,-62 298,-62 298,-65 295,-68 292,-68"/>
<text text-anchor="start" x="232" y="-56.8" font-family="Helvetica,sans-Serif" font-size="9.00">parseQuery.ts</text>
</a>
</g>
</g>
<!-- src/search.ts&#45;&gt;src/parseQuery.ts -->
<g id="edge11" class="edge">
<title>src/search.ts&#45;&gt;src/parseQuery.ts</title>
<path fill="none" stroke="#000000" stroke-width="2" stroke-opacity="0.200000" d="M198.4,-66C204.53,-65.3 211.2,-64.55 217.81,-63.79"/>
<polygon fill="#000000" fill-opacity="0.200000" stroke="#000000" stroke-width="2" stroke-opacity="0.200000" points="218.13,-65.87 223.85,-63.11 217.65,-61.7 218.13,-65.87"/>
</g>
<!-- src/devGetFiles.ts -->
<g id="node7" class="node">
<title>src/devGetFiles.ts</title>
<g id="a_node7"><a xlink:href="src/devGetFiles.ts" xlink:title="devGetFiles.ts">
<path fill="#ddfeff" stroke="black" d="M202,-133C202,-133 140,-133 140,-133 137,-133 134,-130 134,-127 134,-127 134,-121 134,-121 134,-118 137,-115 140,-115 140,-115 202,-115 202,-115 205,-115 208,-118 208,-121 208,-121 208,-127 208,-127 208,-130 205,-133 202,-133"/>
<text text-anchor="start" x="142" y="-121.8" font-family="Helvetica,sans-Serif" font-size="9.00">devGetFiles.ts</text>
</a>
</g>
</g>
<!-- src/devGetFiles.ts&#45;&gt;src/utils.ts -->
<g id="edge6" class="edge">
<title>src/devGetFiles.ts&#45;&gt;src/utils.ts</title>
<path fill="none" stroke="#000000" stroke-width="2" stroke-opacity="0.200000" d="M208.02,-117.71C237.1,-112.63 277.64,-105.54 305.69,-100.65"/>
<polygon fill="#000000" fill-opacity="0.200000" stroke="#000000" stroke-width="2" stroke-opacity="0.200000" points="306.27,-102.67 311.82,-99.57 305.55,-98.54 306.27,-102.67"/>
</g>
<!-- src/getFilesList.ts -->
<g id="node8" class="node">
<title>src/getFilesList.ts</title>
<g id="a_node8"><a xlink:href="src/getFilesList.ts" xlink:title="getFilesList.ts">
<path fill="#ddfeff" stroke="black" d="M291,-140C291,-140 231,-140 231,-140 228,-140 225,-137 225,-134 225,-134 225,-128 225,-128 225,-125 228,-122 231,-122 231,-122 291,-122 291,-122 294,-122 297,-125 297,-128 297,-128 297,-134 297,-134 297,-137 294,-140 291,-140"/>
<text text-anchor="start" x="233" y="-128.8" font-family="Helvetica,sans-Serif" font-size="9.00">getFilesList.ts</text>
</a>
</g>
</g>
<!-- src/devGetFiles.ts&#45;&gt;src/getFilesList.ts -->
<g id="edge5" class="edge">
<title>src/devGetFiles.ts&#45;&gt;src/getFilesList.ts</title>
<path fill="none" stroke="#000000" stroke-width="2" stroke-opacity="0.200000" d="M208.05,-126.87C211.49,-127.14 215,-127.42 218.48,-127.7"/>
<polygon fill="#000000" fill-opacity="0.200000" stroke="#000000" stroke-width="2" stroke-opacity="0.200000" points="218.57,-129.81 224.72,-128.19 218.91,-125.62 218.57,-129.81"/>
</g>
<!-- src/getFilesList.ts&#45;&gt;src/utils.ts -->
<g id="edge7" class="edge">
<title>src/getFilesList.ts&#45;&gt;src/utils.ts</title>
<path fill="none" stroke="#000000" stroke-width="2" stroke-opacity="0.200000" d="M281.18,-121.92C290.9,-117.31 302.82,-111.67 313.23,-106.74"/>
<polygon fill="#000000" fill-opacity="0.200000" stroke="#000000" stroke-width="2" stroke-opacity="0.200000" points="314.3,-108.55 318.83,-104.08 312.51,-104.75 314.3,-108.55"/>
</g>
<!-- src/js&#45;tokens&#45;fork.ts -->
<g id="node9" class="node">
<title>src/js&#45;tokens&#45;fork.ts</title>
<g id="a_node9"><a xlink:href="src/js-tokens-fork.ts" xlink:title="js&#45;tokens&#45;fork.ts">
<path fill="#ddfeff" stroke="black" d="M205,-34C205,-34 137,-34 137,-34 134,-34 131,-31 131,-28 131,-28 131,-22 131,-22 131,-19 134,-16 137,-16 137,-16 205,-16 205,-16 208,-16 211,-19 211,-22 211,-22 211,-28 211,-28 211,-31 208,-34 205,-34"/>
<text text-anchor="start" x="139" y="-22.8" font-family="Helvetica,sans-Serif" font-size="9.00">js&#45;tokens&#45;fork.ts</text>
</a>
</g>
</g>
<!-- src/parseQuery.ts&#45;&gt;src/astUtils.ts -->
<g id="edge8" class="edge">
<title>src/parseQuery.ts&#45;&gt;src/astUtils.ts</title>
<path fill="none" stroke="#000000" stroke-width="2" stroke-opacity="0.200000" d="M298.22,-55.66C300.36,-55.47 302.51,-55.27 304.64,-55.07"/>
<polygon fill="#000000" fill-opacity="0.200000" stroke="#000000" stroke-width="2" stroke-opacity="0.200000" points="305.16,-57.13 310.94,-54.49 304.77,-52.95 305.16,-57.13"/>
</g>
<!-- src/parseQuery.ts&#45;&gt;src/utils.ts -->
<g id="edge9" class="edge">
<title>src/parseQuery.ts&#45;&gt;src/utils.ts</title>
<path fill="none" stroke="#000000" stroke-width="2" stroke-opacity="0.200000" d="M281.18,-68.08C290.9,-72.69 302.82,-78.33 313.23,-83.26"/>
<polygon fill="#000000" fill-opacity="0.200000" stroke="#000000" stroke-width="2" stroke-opacity="0.200000" points="312.51,-85.25 318.83,-85.92 314.3,-81.45 312.51,-85.25"/>
</g>
<!-- src/searchMultiThread.ts -->
<g id="node11" class="node">
<title>src/searchMultiThread.ts</title>
<g id="a_node11"><a xlink:href="src/searchMultiThread.ts" xlink:title="searchMultiThread.ts">
<path fill="#ccffcc" stroke="black" d="M112,-94C112,-94 22,-94 22,-94 19,-94 16,-91 16,-88 16,-88 16,-82 16,-82 16,-79 19,-76 22,-76 22,-76 112,-76 112,-76 115,-76 118,-79 118,-82 118,-82 118,-88 118,-88 118,-91 115,-94 112,-94"/>
<text text-anchor="start" x="24" y="-82.8" font-family="Helvetica,sans-Serif" font-size="9.00">searchMultiThread.ts</text>
</a>
</g>
</g>
<!-- src/searchWorker.ts -->
<g id="node12" class="node">
<title>src/searchWorker.ts</title>
<g id="a_node12"><a xlink:href="src/searchWorker.ts" xlink:title="searchWorker.ts">
<path fill="#ddfeff" stroke="black" d="M102.5,-64C102.5,-64 31.5,-64 31.5,-64 28.5,-64 25.5,-61 25.5,-58 25.5,-58 25.5,-52 25.5,-52 25.5,-49 28.5,-46 31.5,-46 31.5,-46 102.5,-46 102.5,-46 105.5,-46 108.5,-49 108.5,-52 108.5,-52 108.5,-58 108.5,-58 108.5,-61 105.5,-64 102.5,-64"/>
<text text-anchor="start" x="33.5" y="-52.8" font-family="Helvetica,sans-Serif" font-size="9.00">searchWorker.ts</text>
</a>
</g>
</g>
<!-- src/searchWorker.ts&#45;&gt;src/wasm.ts -->
<g id="edge14" class="edge">
<title>src/searchWorker.ts&#45;&gt;src/wasm.ts</title>
<path fill="none" stroke="#000000" stroke-width="2" stroke-opacity="0.200000" d="M108.69,-52.84C137.48,-50.8 176.88,-46.97 211,-40 216.92,-38.79 218.02,-36.9 224,-36 256.52,-31.11 265.11,-35.76 298,-36 328.67,-36.22 336.89,-31.18 367,-37 371.61,-37.89 376.38,-39.29 380.93,-40.88"/>
<polygon fill="#000000" fill-opacity="0.200000" stroke="#000000" stroke-width="2" stroke-opacity="0.200000" points="380.2,-42.85 386.56,-42.98 381.67,-38.91 380.2,-42.85"/>
</g>
<!-- src/searchWorker.ts&#45;&gt;src/search.ts -->
<g id="edge13" class="edge">
<title>src/searchWorker.ts&#45;&gt;src/search.ts</title>
<path fill="none" stroke="#000000" stroke-width="2" stroke-opacity="0.200000" d="M108.61,-60.57C118.36,-61.91 128.64,-63.32 137.94,-64.6"/>
<polygon fill="#000000" fill-opacity="0.200000" stroke="#000000" stroke-width="2" stroke-opacity="0.200000" points="137.67,-66.68 143.9,-65.42 138.24,-62.52 137.67,-66.68"/>
</g>
<!-- src/terminalEditor.ts -->
<g id="node13" class="node">
<title>src/terminalEditor.ts</title>
<g id="a_node13"><a xlink:href="src/terminalEditor.ts" xlink:title="terminalEditor.ts">
<path fill="#ddfeff" stroke="black" d="M102.5,-34C102.5,-34 31.5,-34 31.5,-34 28.5,-34 25.5,-31 25.5,-28 25.5,-28 25.5,-22 25.5,-22 25.5,-19 28.5,-16 31.5,-16 31.5,-16 102.5,-16 102.5,-16 105.5,-16 108.5,-19 108.5,-22 108.5,-22 108.5,-28 108.5,-28 108.5,-31 105.5,-34 102.5,-34"/>
<text text-anchor="start" x="33.5" y="-22.8" font-family="Helvetica,sans-Serif" font-size="9.00">terminalEditor.ts</text>
</a>
</g>
</g>
<!-- src/terminalEditor.ts&#45;&gt;src/js&#45;tokens&#45;fork.ts -->
<g id="edge15" class="edge">
<title>src/terminalEditor.ts&#45;&gt;src/js&#45;tokens&#45;fork.ts</title>
<path fill="none" stroke="#000000" stroke-width="2" stroke-opacity="0.200000" d="M108.61,-25C113.88,-25 119.3,-25 124.64,-25"/>
<polygon fill="#000000" fill-opacity="0.200000" stroke="#000000" stroke-width="2" stroke-opacity="0.200000" points="124.86,-27.1 130.86,-25 124.86,-22.9 124.86,-27.1"/>
</g>
</g>
</svg>
