<?xml version="1.0" encoding="UTF-8" standalone="no"?>
<!DOCTYPE svg PUBLIC "-//W3C//DTD SVG 1.1//EN"
 "http://www.w3.org/Graphics/SVG/1.1/DTD/svg11.dtd">
<!-- Generated by graphviz version 2.50.0 (20211204.2007)
 -->
<!-- Title: dependency&#45;cruiser output Pages: 1 -->
<svg width="317pt" height="106pt"
 viewBox="0.00 0.00 317.00 106.00" xmlns="http://www.w3.org/2000/svg" xmlns:xlink="http://www.w3.org/1999/xlink">
<g id="graph0" class="graph" transform="scale(1 1) rotate(0) translate(4 102)">
<title>dependency&#45;cruiser output</title>
<polygon fill="white" stroke="transparent" points="-4,4 -4,-102 313,-102 313,4 -4,4"/>
<g id="clust1" class="cluster">
<title>cluster_src</title>
<path fill="#ffffff" stroke="black" stroke-width="2" d="M20,-8C20,-8 289,-8 289,-8 295,-8 301,-14 301,-20 301,-20 301,-78 301,-78 301,-84 295,-90 289,-90 289,-90 20,-90 20,-90 14,-90 8,-84 8,-78 8,-78 8,-20 8,-20 8,-14 14,-8 20,-8"/>
<text text-anchor="middle" x="154.5" y="-78.8" font-family="Helvetica,sans-Serif" font-weight="bold" font-size="9.00">src</text>
</g>
<!-- src/astUtils.ts -->
<g id="node1" class="node">
<title>src/astUtils.ts</title>
<g id="a_node1"><a xlink:href="src/astUtils.ts" xlink:title="astUtils.ts">
<path fill="#ddfeff" stroke="black" d="M220,-34C220,-34 176,-34 176,-34 173,-34 170,-31 170,-28 170,-28 170,-22 170,-22 170,-19 173,-16 176,-16 176,-16 220,-16 220,-16 223,-16 226,-19 226,-22 226,-22 226,-28 226,-28 226,-31 223,-34 220,-34"/>
<text text-anchor="start" x="178" y="-22.8" font-family="Helvetica,sans-Serif" font-size="9.00">astUtils.ts</text>
</a>
</g>
</g>
<!-- src/wasm.ts -->
<g id="node2" class="node">
<title>src/wasm.ts</title>
<g id="a_node2"><a xlink:href="src/wasm.ts" xlink:title="wasm.ts">
<path fill="#ddfeff" stroke="black" d="M287,-34C287,-34 245,-34 245,-34 242,-34 239,-31 239,-28 239,-28 239,-22 239,-22 239,-19 242,-16 245,-16 245,-16 287,-16 287,-16 290,-16 293,-19 293,-22 293,-22 293,-28 293,-28 293,-31 290,-34 287,-34"/>
<text text-anchor="start" x="249" y="-22.8" font-family="Helvetica,sans-Serif" font-size="9.00">wasm.ts</text>
</a>
</g>
</g>
<!-- src/astUtils.ts&#45;&gt;src/wasm.ts -->
<g id="edge1" class="edge">
<title>src/astUtils.ts&#45;&gt;src/wasm.ts</title>
<path fill="none" stroke="#000000" stroke-width="2" stroke-opacity="0.200000" d="M226.23,-25C228.29,-25 230.38,-25 232.46,-25"/>
<polygon fill="#000000" fill-opacity="0.200000" stroke="#000000" stroke-width="2" stroke-opacity="0.200000" points="232.69,-27.1 238.69,-25 232.69,-22.9 232.69,-27.1"/>
</g>
<!-- src/parseQuery.ts -->
<g id="node3" class="node">
<title>src/parseQuery.ts</title>
<g id="a_node3"><a xlink:href="src/parseQuery.ts" xlink:title="parseQuery.ts">
<path fill="#ddfeff" stroke="black" d="M151,-49C151,-49 89,-49 89,-49 86,-49 83,-46 83,-43 83,-43 83,-37 83,-37 83,-34 86,-31 89,-31 89,-31 151,-31 151,-31 154,-31 157,-34 157,-37 157,-37 157,-43 157,-43 157,-46 154,-49 151,-49"/>
<text text-anchor="start" x="91" y="-37.8" font-family="Helvetica,sans-Serif" font-size="9.00">parseQuery.ts</text>
</a>
</g>
</g>
<!-- src/parseQuery.ts&#45;&gt;src/astUtils.ts -->
<g id="edge2" class="edge">
<title>src/parseQuery.ts&#45;&gt;src/astUtils.ts</title>
<path fill="none" stroke="#000000" stroke-width="2" stroke-opacity="0.200000" d="M157.22,-32.85C159.49,-32.4 161.78,-31.95 164.04,-31.51"/>
<polygon fill="#000000" fill-opacity="0.200000" stroke="#000000" stroke-width="2" stroke-opacity="0.200000" points="164.46,-33.56 169.94,-30.34 163.64,-29.44 164.46,-33.56"/>
</g>
<!-- src/utils.ts -->
<g id="node4" class="node">
<title>src/utils.ts</title>
<g id="a_node4"><a xlink:href="src/utils.ts" xlink:title="utils.ts">
<path fill="#ddfeff" stroke="black" d="M219,-64C219,-64 177,-64 177,-64 174,-64 171,-61 171,-58 171,-58 171,-52 171,-52 171,-49 174,-46 177,-46 177,-46 219,-46 219,-46 222,-46 225,-49 225,-52 225,-52 225,-58 225,-58 225,-61 222,-64 219,-64"/>
<text text-anchor="start" x="185" y="-52.8" font-family="Helvetica,sans-Serif" font-size="9.00">utils.ts</text>
</a>
</g>
</g>
<!-- src/parseQuery.ts&#45;&gt;src/utils.ts -->
<g id="edge3" class="edge">
<title>src/parseQuery.ts&#45;&gt;src/utils.ts</title>
<path fill="none" stroke="#000000" stroke-width="2" stroke-opacity="0.200000" d="M157.22,-47.15C159.66,-47.63 162.1,-48.11 164.52,-48.59"/>
<polygon fill="#000000" fill-opacity="0.200000" stroke="#000000" stroke-width="2" stroke-opacity="0.200000" points="164.53,-50.73 170.82,-49.83 165.34,-46.61 164.53,-50.73"/>
</g>
<!-- src/search.ts -->
<g id="node5" class="node">
<title>src/search.ts</title>
<g id="a_node5"><a xlink:href="src/search.ts" xlink:title="search.ts">
<path fill="#ddfeff" stroke="black" d="M64,-49C64,-49 22,-49 22,-49 19,-49 16,-46 16,-43 16,-43 16,-37 16,-37 16,-34 19,-31 22,-31 22,-31 64,-31 64,-31 67,-31 70,-34 70,-37 70,-37 70,-43 70,-43 70,-46 67,-49 64,-49"/>
<text text-anchor="start" x="24.5" y="-37.8" font-family="Helvetica,sans-Serif" font-size="9.00">search.ts</text>
</a>
</g>
</g>
<!-- src/search.ts&#45;&gt;src/astUtils.ts -->
<g id="edge4" class="edge">
<title>src/search.ts&#45;&gt;src/astUtils.ts</title>
<path fill="none" stroke="#000000" stroke-width="2" stroke-opacity="0.200000" d="M63.43,-30.92C69.56,-28.5 76.44,-26.22 83,-25 109.68,-20.05 140.48,-20.4 163.34,-21.79"/>
<polygon fill="#000000" fill-opacity="0.200000" stroke="#000000" stroke-width="2" stroke-opacity="0.200000" points="163.44,-23.91 169.56,-22.21 163.72,-19.72 163.44,-23.91"/>
</g>
<!-- src/search.ts&#45;&gt;src/parseQuery.ts -->
<g id="edge5" class="edge">
<title>src/search.ts&#45;&gt;src/parseQuery.ts</title>
<path fill="none" stroke="#000000" stroke-width="2" stroke-opacity="0.200000" d="M70.23,-40C72.26,-40 74.34,-40 76.43,-40"/>
<polygon fill="#000000" fill-opacity="0.200000" stroke="#000000" stroke-width="2" stroke-opacity="0.200000" points="76.76,-42.1 82.76,-40 76.76,-37.9 76.76,-42.1"/>
</g>
<!-- src/search.ts&#45;&gt;src/utils.ts -->
<g id="edge6" class="edge">
<title>src/search.ts&#45;&gt;src/utils.ts</title>
<path fill="none" stroke="#000000" stroke-width="2" stroke-opacity="0.200000" d="M63.43,-49.08C69.56,-51.5 76.44,-53.78 83,-55 110.21,-60.05 141.72,-59.59 164.7,-58.12"/>
<polygon fill="#000000" fill-opacity="0.200000" stroke="#000000" stroke-width="2" stroke-opacity="0.200000" points="165.11,-60.2 170.95,-57.68 164.81,-56.01 165.11,-60.2"/>
</g>
</g>
</svg>
